<?xml version="1.0" encoding="UTF-8"?>
<svg id="_レイヤー_2" data-name="レイヤー 2" xmlns="http://www.w3.org/2000/svg" viewBox="0 0 64.65 68.87">
  <defs>
    <style>
      .cls-1 {
        fill: #231815;
        stroke-width: 0px;
      }
    </style>
  </defs>
  <g id="_レイヤー_1-2" data-name="レイヤー 1">
    <g>
      <path class="cls-1" d="m62.56,48.99h-5.89c-1.15,0-2.09.93-2.09,2.09v7.74H10.06v-7.74c0-1.15-.93-2.09-2.09-2.09H2.09c-1.15,0-2.09.93-2.09,2.09v12.77c0,2.78,2.25,5.03,5.03,5.03h54.59c2.78,0,5.03-2.25,5.03-5.03v-12.77c0-1.15-.93-2.09-2.09-2.09Z"/>
      <path class="cls-1" d="m15.98,21.6h7.59c1.71,0,3.09,1.38,3.09,3.09v22.57c0,.95.91,1.72,2.04,1.72h7.08c1.13,0,2.04-.77,2.04-1.72v-22.57c0-1.71,1.38-3.09,3.09-3.09h7.74c1.69,0,2.65-1.63,1.63-2.76L33.95.68c-.82-.91-2.44-.91-3.26,0L14.36,18.84c-1.02,1.13-.06,2.76,1.63,2.76Z"/>
    </g>
  </g>
</svg>